<?xml version="1.0" encoding="UTF-8" standalone="no"?>
<!-- Created with Inkscape (http://www.inkscape.org/) -->

<svg
   xmlns:dc="http://purl.org/dc/elements/1.1/"
   xmlns:cc="http://creativecommons.org/ns#"
   xmlns:rdf="http://www.w3.org/1999/02/22-rdf-syntax-ns#"
   xmlns:svg="http://www.w3.org/2000/svg"
   xmlns="http://www.w3.org/2000/svg"
   xmlns:xlink="http://www.w3.org/1999/xlink"
   xmlns:sodipodi="http://sodipodi.sourceforge.net/DTD/sodipodi-0.dtd"
   xmlns:inkscape="http://www.inkscape.org/namespaces/inkscape"
   width="125mm"
   height="65mm"
   viewBox="0 0 125 65"
   version="1.1"
   id="svg8"
   sodipodi:docname="favicon.svg"
   inkscape:version="0.92.4 (5da689c313, 2019-01-14)">
  <defs
     id="defs2">
    <linearGradient
       inkscape:collect="always"
       id="linearGradient1075">
      <stop
         style="stop-color:#ececec;stop-opacity:1;"
         offset="0"
         id="stop1071" />
      <stop
         style="stop-color:#ececec;stop-opacity:0;"
         offset="1"
         id="stop1073" />
    </linearGradient>
    <linearGradient
       inkscape:collect="always"
       id="linearGradient1065">
      <stop
         style="stop-color:#ececec;stop-opacity:1;"
         offset="0"
         id="stop1061" />
      <stop
         style="stop-color:#ececec;stop-opacity:0;"
         offset="1"
         id="stop1063" />
    </linearGradient>
    <linearGradient
       inkscape:collect="always"
       id="linearGradient1055">
      <stop
         style="stop-color:#ececec;stop-opacity:1;"
         offset="0"
         id="stop1051" />
      <stop
         style="stop-color:#ececec;stop-opacity:0;"
         offset="1"
         id="stop1053" />
    </linearGradient>
    <linearGradient
       inkscape:collect="always"
       xlink:href="#linearGradient1055"
       id="linearGradient1057"
       x1="35.680481"
       y1="236.19618"
       x2="55.992966"
       y2="236.19618"
       gradientUnits="userSpaceOnUse"
       gradientTransform="translate(1.3229167,35.151786)" />
    <linearGradient
       inkscape:collect="always"
       xlink:href="#linearGradient1065"
       id="linearGradient1067"
       x1="66.416481"
       y1="235.46118"
       x2="93.945244"
       y2="235.46118"
       gradientUnits="userSpaceOnUse"
       gradientTransform="translate(1.3229167,35.151786)" />
    <linearGradient
       inkscape:collect="always"
       xlink:href="#linearGradient1075"
       id="linearGradient1077"
       x1="46.638535"
       y1="220.56091"
       x2="63.610146"
       y2="220.56091"
       gradientUnits="userSpaceOnUse"
       gradientTransform="translate(1.3229167,35.151786)" />
  </defs>
  <sodipodi:namedview
     id="base"
     pagecolor="#ffffff"
     bordercolor="#666666"
     borderopacity="1.0"
     inkscape:pageopacity="0.0"
     inkscape:pageshadow="2"
     inkscape:zoom="2.8"
     inkscape:cx="242.74671"
     inkscape:cy="99.965871"
     inkscape:document-units="mm"
     inkscape:current-layer="layer1"
     showgrid="false"
     inkscape:window-width="1920"
     inkscape:window-height="1017"
     inkscape:window-x="-8"
     inkscape:window-y="-8"
     inkscape:window-maximized="1" />
  <metadata
     id="metadata5">
    <rdf:RDF>
      <cc:Work
         rdf:about="">
        <dc:format>image/svg+xml</dc:format>
        <dc:type
           rdf:resource="http://purl.org/dc/dcmitype/StillImage" />
        <dc:title></dc:title>
      </cc:Work>
    </rdf:RDF>
  </metadata>
  <g
     inkscape:label="Layer 1"
     inkscape:groupmode="layer"
     id="layer1"
     transform="translate(0,-232)">
    <path
       style="opacity:1;fill:#e6e6e6;fill-opacity:1;stroke:#4a0000;stroke-width:0.94205362;stroke-miterlimit:4;stroke-dasharray:none;stroke-opacity:1"
       d="m 56.898805,233.19524 a 33.762521,26.938184 0 0 0 -33.658615,25.66672 17.06085,17.779201 0 0 0 -4.043171,-0.52503 17.06085,17.779201 0 0 0 -17.0484132,17.78802 17.06085,17.779201 0 0 0 17.0650772,17.77066 17.06085,17.779201 0 0 0 4.762638,-0.71809 h 69.975641 a 18.048582,20.832195 0 0 0 8.859968,2.69384 18.048582,20.832195 0 0 0 18.04427,-20.83255 v -0.0201 a 18.048582,20.832195 0 0 0 -18.06163,-20.81171 18.048582,20.832195 0 0 0 -3.73135,0.47848 5.0284609,10.95486 0 0 0 -4.968894,-9.27874 5.0284609,10.95486 0 0 0 -0.09514,0.008 9.518158,9.0691875 0 0 0 -6.373799,-2.34173 9.518158,9.0691875 0 0 0 -3.836222,0.78404 33.762521,26.938184 0 0 0 -26.890362,-10.66142 z"
       id="path974"
       inkscape:connector-curvature="0" />
    <path
       style="opacity:1;fill:url(#linearGradient1057);fill-opacity:1;stroke:none;stroke-width:0.70100003;stroke-miterlimit:4;stroke-dasharray:none;stroke-opacity:1"
       id="path1033"
       sodipodi:type="arc"
       sodipodi:cx="45.689659"
       sodipodi:cy="271.34796"
       sodipodi:rx="8.6862593"
       sodipodi:ry="8.5526247"
       sodipodi:start="0"
       sodipodi:end="6.2822254"
       sodipodi:open="true"
       d="m 54.375918,271.34796 a 8.6862593,8.5526247 0 0 1 -8.684174,8.55263 8.6862593,8.5526247 0 0 1 -8.688343,-8.54852 8.6862593,8.5526247 0 0 1 8.680005,-8.55673 8.6862593,8.5526247 0 0 1 8.692508,8.54441" />
    <path
       style="opacity:1;fill:url(#linearGradient1067);fill-opacity:1;stroke:none;stroke-width:0.70100003;stroke-miterlimit:4;stroke-dasharray:none;stroke-opacity:1"
       id="path1059"
       sodipodi:type="arc"
       sodipodi:cx="81.503777"
       sodipodi:cy="270.61295"
       sodipodi:rx="13.76438"
       sodipodi:ry="11.425772"
       sodipodi:start="0"
       sodipodi:end="6.2822254"
       sodipodi:open="true"
       d="M 95.268157,270.61295 A 13.76438,11.425772 0 0 1 81.50708,282.03872 13.76438,11.425772 0 0 1 67.739398,270.61843 13.76438,11.425772 0 0 1 81.493867,259.18718 13.76438,11.425772 0 0 1 95.268151,270.60198" />
    <path
       style="opacity:1;fill:url(#linearGradient1077);fill-opacity:1;stroke:none;stroke-width:0.70100003;stroke-miterlimit:4;stroke-dasharray:none;stroke-opacity:1"
       id="path1069"
       sodipodi:type="arc"
       sodipodi:cx="56.447258"
       sodipodi:cy="255.71269"
       sodipodi:rx="8.4858074"
       sodipodi:ry="9.3544331"
       sodipodi:start="0"
       sodipodi:end="6.2822254"
       sodipodi:open="true"
       d="m 64.933065,255.71269 a 8.4858074,9.3544331 0 0 1 -8.483771,9.35444 8.4858074,9.3544331 0 0 1 -8.487842,-9.34995 8.4858074,9.3544331 0 0 1 8.479697,-9.35892 8.4858074,9.3544331 0 0 1 8.491913,9.34545" />
  </g>
</svg>
